<svg xmlns="http://www.w3.org/2000/svg" xmlns:xlink="http://www.w3.org/1999/xlink" width="1000" zoomAndPan="magnify" viewBox="0 0 750 749.999995" height="1000" preserveAspectRatio="xMidYMid meet" version="1.0"><defs><filter x="0%" y="0%" width="100%" height="100%" id="e22281d7df"><feColorMatrix values="0 0 0 0 1 0 0 0 0 1 0 0 0 0 1 0 0 0 1 0" color-interpolation-filters="sRGB"/></filter><clipPath id="850c5ecc1b"><path d="M 46 97 L 745 97 L 745 669 L 46 669 Z M 46 97 " clip-rule="nonzero"/></clipPath><clipPath id="4c3a5ff282"><path d="M 707.796875 748.03125 L -2.625 645.726562 L 84.074219 43.6875 L 794.492188 145.992188 Z M 707.796875 748.03125 " clip-rule="nonzero"/></clipPath><clipPath id="4668180f4b"><path d="M 707.796875 748.03125 L -2.625 645.726562 L 84.074219 43.6875 L 794.492188 145.992188 Z M 707.796875 748.03125 " clip-rule="nonzero"/></clipPath><mask id="6c133f1815"><g filter="url(#e22281d7df)"><rect x="-75" width="900" fill="#000000" y="-74.999999" height="899.999994" fill-opacity="0.8"/></g></mask><clipPath id="f8f6ad7d73"><path d="M 5 2 L 601 2 L 601 702 L 5 702 Z M 5 2 " clip-rule="nonzero"/></clipPath><clipPath id="d18388f302"><path d="M 702.894531 117.972656 L 463.582031 794.652344 L -109.863281 591.84375 L 129.453125 -84.832031 Z M 702.894531 117.972656 " clip-rule="nonzero"/></clipPath><clipPath id="019c89a665"><path d="M 702.894531 117.972656 L 463.582031 794.652344 L -109.863281 591.84375 L 129.453125 -84.832031 Z M 702.894531 117.972656 " clip-rule="nonzero"/></clipPath><clipPath id="c1054e4fff"><rect x="0" width="698" y="0" height="750"/></clipPath></defs><g clip-path="url(#850c5ecc1b)"><g clip-path="url(#4c3a5ff282)"><g clip-path="url(#4668180f4b)"><path fill="#f5ded2" d="M 705.179688 623.640625 C 729.984375 591.910156 727.882812 546.5625 722.40625 506.34375 C 716.9375 466.117188 709.84375 422.820312 727.695312 386.40625 C 733.089844 375.394531 740.695312 365.273438 743.316406 353.242188 C 748.320312 330.277344 733.082031 307.046875 713.460938 295.769531 C 693.84375 284.492188 670.710938 282.292969 648.382812 279.546875 C 626.058594 276.796875 602.835938 272.863281 584.84375 258.972656 C 548.335938 230.78125 546.460938 173.382812 517.085938 137.242188 C 494.78125 109.789062 458.675781 97.921875 423.96875 97.769531 C 389.257812 97.613281 355.234375 107.753906 321.769531 117.796875 C 272.199219 132.683594 222.242188 147.722656 176.402344 172.601562 C 133.78125 195.734375 94.460938 228.152344 70.058594 271.355469 C 45.652344 314.558594 37.921875 369.5 57.066406 414.941406 C 72.777344 452.222656 105.902344 485.136719 101.179688 525.808594 C 98.402344 549.707031 82.378906 571.214844 83.15625 595.234375 C 84.941406 650.085938 156.742188 668.632812 198.332031 668.597656 C 248.097656 668.558594 292.949219 645.71875 332.117188 614.933594 C 357.457031 595.019531 382.4375 569.132812 416.128906 569.234375 C 466.332031 569.390625 511.09375 614.136719 553.855469 635.875 C 599.9375 659.308594 667.484375 671.863281 705.179688 623.640625 " fill-opacity="1" fill-rule="nonzero"/></g></g></g><g mask="url(#6c133f1815)"><g transform="matrix(1, 0, 0, 1, 0, -0.000000000000042435)"><g clip-path="url(#c1054e4fff)"><g clip-path="url(#f8f6ad7d73)"><g clip-path="url(#d18388f302)"><g clip-path="url(#019c89a665)"><path fill="#f0b872" d="M 580.394531 96.199219 C 554.132812 65.667969 509.25 58.859375 468.734375 56.359375 C 428.21875 53.855469 384.371094 52.339844 352.152344 27.710938 C 342.40625 20.265625 333.96875 10.828125 322.6875 5.902344 C 301.140625 -3.5 275.378906 6.902344 260.480469 23.9375 C 245.585938 40.96875 238.902344 63.226562 231.839844 84.582031 C 224.777344 105.941406 216.375 127.945312 199.234375 142.871094 C 164.445312 173.160156 107.789062 163.765625 66.597656 185.5 C 35.3125 202.007812 16.609375 235.09375 9.671875 269.101562 C 2.730469 303.109375 6.015625 338.457031 9.320312 373.242188 C 14.21875 424.765625 19.195312 476.699219 34.625 526.519531 C 48.96875 572.84375 73.070312 617.746094 110.664062 650.128906 C 148.257812 682.515625 200.625 700.847656 248.9375 690.960938 C 288.570312 682.847656 327.324219 656.800781 366.289062 669.390625 C 389.183594 676.789062 407.140625 696.714844 430.847656 700.648438 C 484.988281 709.628906 517.226562 642.847656 525.328125 602.050781 C 535.023438 553.238281 521.402344 504.785156 498.871094 460.351562 C 484.300781 431.605469 463.800781 402.042969 470.492188 369.023438 C 480.46875 319.820312 533.105469 284.679688 562.789062 246.996094 C 594.785156 206.390625 620.3125 142.601562 580.394531 96.199219 " fill-opacity="1" fill-rule="nonzero"/></g></g></g></g></g></g></svg>